<svg xmlns="http://www.w3.org/2000/svg" version="1.1" xmlns:xlink="http://www.w3.org/1999/xlink" xmlns:svgjs="http://svgjs.dev/svgjs" width="2000" height="1247" viewBox="0 0 2000 1247"><g transform="matrix(1,0,0,1,-1.2121212121212466,0.504858299595071)"><svg viewBox="0 0 396 247" data-background-color="#f0ead8" preserveAspectRatio="xMidYMid meet" height="1247" width="2000" xmlns="http://www.w3.org/2000/svg" xmlns:xlink="http://www.w3.org/1999/xlink"><g id="tight-bounds" transform="matrix(1,0,0,1,0.2400000000000091,-0.09999999999999432)"><svg viewBox="0 0 395.52 247.2" height="247.2" width="395.52"><g><svg></svg></g><g><svg viewBox="0 0 395.52 247.2" height="247.2" width="395.52"><g><path d="M55.039 247.2l44.7-77.422v13.135l-33.116 57.359h262.274l-33.116-57.359v-13.135l44.7 77.422zM197.76 0l26.403 45.732-7.583 0-18.82-32.596-18.82 32.596-7.583 0z" fill="#021e66" fill-rule="nonzero" stroke="none" stroke-width="1" stroke-linecap="butt" stroke-linejoin="miter" stroke-miterlimit="10" stroke-dasharray="" stroke-dashoffset="0" font-family="none" font-weight="none" font-size="none" text-anchor="none" style="mix-blend-mode: normal" data-fill-palette-color="tertiary"></path></g><g transform="matrix(1,0,0,1,121.98667617689016,67.97999999999999)"><svg viewBox="0 0 151.54664764621967 111.24" height="111.24" width="151.54664764621967"><g><svg viewBox="0 0 151.54664764621967 111.24" height="111.24" width="151.54664764621967"><g><svg viewBox="0 0 151.54664764621967 111.24" height="111.24" width="151.54664764621967"><g id="textblocktransform"><svg viewBox="0 0 151.54664764621967 111.24" height="111.24" width="151.54664764621967" id="textblock"><g><svg viewBox="0 0 151.54664764621967 111.24" height="111.24" width="151.54664764621967"><g transform="matrix(1,0,0,1,0,0)"><svg width="151.54664764621967" viewBox="4.95 -35.05 47.75 35.05" height="111.24" data-palette-color="#021e66"><path d="M20.15-18.4L17.35-16.8 16.6-18.1 19.4-19.7Q22.85-21.6 22.85-25.75L22.85-25.75Q22.85-33.5 11.05-33.5L11.05-33.5 6.45-33.5 6.45 0 4.95 0 4.95-35 11.05-35Q17.65-35 21-32.58 24.35-30.15 24.35-25.75L24.35-25.75Q24.35-20.75 20.15-18.4L20.15-18.4ZM32.15 0L32.15-1.5 50.55-1.5 39.95-30.65 28.8 0 27.2 0 39.95-35.05 52.7 0 32.15 0Z" opacity="1" transform="matrix(1,0,0,1,0,0)" fill="#021e66" class="wordmark-text-0" data-fill-palette-color="primary" id="text-0"></path></svg></g></svg></g></svg></g></svg></g><g></g></svg></g></svg></g></svg></g><defs></defs></svg><rect width="395.52" height="247.2" fill="none" stroke="none" visibility="hidden"></rect></g></svg></g></svg>